<?xml version="1.0" standalone="no"?>
<!DOCTYPE svg PUBLIC "-//W3C//DTD SVG 20010904//EN"
 "http://www.w3.org/TR/2001/REC-SVG-20010904/DTD/svg10.dtd">
<svg version="1.0" xmlns="http://www.w3.org/2000/svg"
 width="219.000000pt" height="219.000000pt" viewBox="0 0 219.000000 219.000000"
 preserveAspectRatio="xMidYMid meet">
<metadata>
Created by potrace 1.14, written by Peter Selinger 2001-2017
</metadata>
<g transform="translate(0.000000,219.000000) scale(0.100000,-0.100000)"
fill="#000000" stroke="none">
<path d="M1189 2162 c-10 -14 -19 -34 -20 -46 0 -11 -2 -28 -4 -36 -3 -15 -11
-70 -21 -140 -3 -19 -14 -41 -25 -49 -23 -17 -26 -46 -3 -37 14 5 15 -1 10
-45 -4 -28 -8 -55 -11 -59 -2 -4 -23 -7 -47 -8 -72 -3 -145 -30 -336 -123
-100 -49 -185 -89 -188 -89 -3 0 -3 4 1 9 14 24 -20 20 -47 -5 -21 -20 -32
-25 -35 -16 -4 10 -8 10 -19 1 -9 -7 -11 -16 -5 -23 6 -7 -5 -26 -32 -57 -95
-104 -122 -138 -173 -215 -73 -113 -131 -231 -141 -290 -12 -62 -7 -213 8
-279 13 -57 47 -129 92 -195 62 -92 223 -243 317 -298 94 -55 242 -110 345
-128 22 -4 49 -8 60 -10 46 -9 197 -18 290 -18 116 1 372 17 415 27 8 2 33 7
55 12 132 26 253 143 338 325 57 123 80 230 78 374 -2 263 -111 476 -329 648
-37 29 -94 78 -127 109 -103 97 -134 123 -198 162 -79 48 -164 75 -245 76
l-43 1 7 58 c7 64 14 77 50 86 14 4 49 22 77 41 55 35 203 90 324 119 88 22
108 35 98 65 -11 35 -46 51 -126 56 -41 2 -105 8 -144 11 -38 4 -105 8 -148 9
-72 1 -80 0 -98 -23z"/>
</g>
</svg>
